<svg width="499" height="690" viewBox="0 0 499 690" fill="none" xmlns="http://www.w3.org/2000/svg">
<path d="M89.5819 385.634C89.3399 386.008 88.1296 388.053 86.8753 390.184C85.621 392.316 80.5159 400.927 75.5428 409.337C70.5697 417.719 61.6577 432.753 55.7604 442.747L45 460.892L67.599 460.978C80.0318 461.007 100.298 461.007 112.599 460.978L135 460.892L129.477 451.532C126.418 446.376 120.719 436.728 116.78 430.074C112.841 423.421 106.174 412.131 101.949 405.017C97.7457 397.874 93.3447 390.472 92.2005 388.514C91.0562 386.584 90.11 385 90.066 385C90.044 385 89.824 385.288 89.5819 385.634Z" fill="#F08080"/>
<path d="M44.5819 461.634C44.3399 462.008 43.1296 464.053 41.8753 466.184C40.621 468.316 35.5159 476.927 30.5428 485.337C25.5697 493.719 16.6577 508.753 10.7604 518.747L0 536.892L22.599 536.978C35.0318 537.007 55.2983 537.007 67.599 536.978L90 536.892L84.4768 527.532C81.4181 522.376 75.7188 512.728 71.7799 506.074C67.8411 499.421 61.1736 488.131 56.9487 481.017C52.7457 473.874 48.3447 466.472 47.2005 464.514C46.0562 462.584 45.11 461 45.066 461C45.044 461 44.824 461.288 44.5819 461.634Z" fill="#CD5C5C"/>
<path d="M44.5819 309.634C44.3399 310.008 43.1296 312.053 41.8753 314.184C40.621 316.316 35.5159 324.927 30.5428 333.337C25.5697 341.719 16.6577 356.753 10.7604 366.747L0 384.892L22.599 384.978C35.0318 385.007 55.2983 385.007 67.599 384.978L90 384.892L84.4768 375.532C81.4181 370.376 75.7188 360.728 71.7799 354.074C67.8411 347.421 61.1736 336.131 56.9487 329.017C52.7457 321.874 48.3447 314.472 47.2005 312.514C46.0562 310.584 45.11 309 45.066 309C45.044 309 44.824 309.288 44.5819 309.634Z" fill="#CD5C5C"/>
<path d="M135.418 460.366C135.66 459.992 136.87 457.947 138.125 455.816C139.379 453.684 144.484 445.073 149.457 436.663C154.43 428.281 163.342 413.247 169.24 403.253L180 385.108L157.401 385.022C144.968 384.993 124.702 384.993 112.401 385.022L90 385.108L95.5232 394.468C98.5819 399.624 104.281 409.272 108.22 415.926C112.159 422.579 118.826 433.869 123.051 440.983C127.254 448.126 131.655 455.528 132.8 457.486C133.944 459.416 134.89 461 134.934 461C134.956 461 135.176 460.712 135.418 460.366Z" fill="#CD5C5C"/>
<path d="M37.4501 14.2642C32.8218 22.1629 25.2965 34.9403 20.7035 42.7461C16.1106 50.5519 9.5745 61.6101 6.1828 67.3716L0 77.8258L23.1413 77.9652C35.8602 78.0116 56.5638 78.0116 69.1413 77.9652L92 77.8258L84.7573 65.513C62.1106 26.9951 46.1413 0 46.0353 0C45.9647 0 42.1137 6.41191 37.4501 14.2642Z" fill="#F08080"/>
<path d="M37.4501 14.2642C32.8218 22.1629 25.2965 34.9403 20.7035 42.7461C16.1106 50.5519 9.5745 61.6101 6.1828 67.3716L0 77.8258L23.1413 77.9652C35.8602 78.0116 56.5638 78.0116 69.1413 77.9652L92 77.8258L84.7573 65.513C62.1106 26.9951 46.1413 0 46.0353 0C45.9647 0 42.1137 6.41191 37.4501 14.2642Z" fill="#F08080"/>
<path d="M100.55 373.736C105.178 365.837 112.704 353.06 117.296 345.254C121.889 337.448 128.425 326.39 131.817 320.628L138 310.174L114.859 310.035C102.14 309.988 81.4362 309.988 68.8587 310.035L46 310.174L53.2427 322.487C75.8894 361.005 91.8587 388 91.9647 388C92.0353 388 95.8863 381.588 100.55 373.736Z" fill="#FF7F50"/>
<path d="M192.55 371.736C197.178 363.837 204.704 351.06 209.296 343.254C213.889 335.448 220.425 324.39 223.817 318.628L230 308.174L206.859 308.035C194.14 307.988 173.436 307.988 160.859 308.035L138 308.174L145.243 320.487C167.889 359.005 183.859 386 183.965 386C184.035 386 187.886 379.588 192.55 371.736Z" fill="#F08080"/>
<path d="M146.55 295.736C151.178 287.837 158.704 275.06 163.296 267.254C167.889 259.448 174.425 248.39 177.817 242.628L184 232.174L160.859 232.035C148.14 231.988 127.436 231.988 114.859 232.035L92 232.174L99.2427 244.487C121.889 283.005 137.859 310 137.965 310C138.035 310 141.886 303.588 146.55 295.736Z" fill="#F08080"/>
<path d="M54.5499 294.736C59.1782 286.837 66.7035 274.06 71.2965 266.254C75.8894 258.448 82.4255 247.39 85.8172 241.628L92 231.174L68.8587 231.035C56.1398 230.988 35.4362 230.988 22.8587 231.035L0 231.174L7.2427 243.487C29.8894 282.005 45.8587 309 45.9647 309C46.0353 309 49.8863 302.588 54.5499 294.736Z" fill="#FF7F50"/>
<path d="M100.55 217.736C105.178 209.837 112.704 197.06 117.296 189.254C121.889 181.448 128.425 170.39 131.817 164.628L138 154.174L114.859 154.035C102.14 153.988 81.4362 153.988 68.8587 154.035L46 154.174L53.2427 166.487C75.8894 205.005 91.8587 232 91.9647 232C92.0353 232 95.8863 225.588 100.55 217.736Z" fill="#F08080"/>
<path d="M267.45 245.264C262.822 253.163 255.296 265.94 250.704 273.746C246.111 281.552 239.575 292.61 236.183 298.372L230 308.826L253.141 308.965C265.86 309.012 286.564 309.012 299.141 308.965L322 308.826L314.757 296.513C292.111 257.995 276.141 231 276.035 231C275.965 231 272.114 237.412 267.45 245.264Z" fill="#FF7F50"/>
<path d="M324.55 448.736C329.178 440.837 336.704 428.06 341.296 420.254C345.889 412.448 352.425 401.39 355.817 395.628L362 385.174L338.859 385.035C326.14 384.988 305.436 384.988 292.859 385.035L270 385.174L277.243 397.487C299.889 436.005 315.859 463 315.965 463C316.035 463 319.886 456.588 324.55 448.736Z" fill="#F08080"/>
<path d="M37.4501 14.2642C32.8218 22.1629 25.2965 34.9403 20.7035 42.7461C16.1106 50.5519 9.5745 61.6101 6.1828 67.3716L0 77.8258L23.1413 77.9652C35.8602 78.0116 56.5638 78.0116 69.1413 77.9652L92 77.8258L84.7573 65.513C62.1106 26.9951 46.1413 0 46.0353 0C45.9647 0 42.1137 6.41191 37.4501 14.2642Z" fill="#FF7F50"/>
<path d="M191.55 371.736C196.178 363.837 203.704 351.06 208.296 343.254C212.889 335.448 219.425 324.39 222.817 318.628L229 308.174L205.859 308.035C193.14 307.988 172.436 307.988 159.859 308.035L137 308.174L144.243 320.487C166.889 359.005 182.859 386 182.965 386C183.035 386 186.886 379.588 191.55 371.736Z" fill="#FF7F50"/>
<path d="M281.55 522.736C286.178 514.837 293.704 502.06 298.296 494.254C302.889 486.448 309.425 475.39 312.817 469.628L319 459.174L295.859 459.035C283.14 458.988 262.436 458.988 249.859 459.035L227 459.174L234.243 471.487C256.889 510.005 272.859 537 272.965 537C273.035 537 276.886 530.588 281.55 522.736Z" fill="#FF7F50"/>
<path d="M146.55 295.736C151.178 287.837 158.704 275.06 163.296 267.254C167.889 259.448 174.425 248.39 177.817 242.628L184 232.174L160.859 232.035C148.14 231.988 127.436 231.988 114.859 232.035L92 232.174L99.2427 244.487C121.889 283.005 137.859 310 137.965 310C138.035 310 141.886 303.588 146.55 295.736Z" fill="#CD5C5C"/>
<path d="M219.45 322.264C214.822 330.163 207.296 342.94 202.704 350.746C198.111 358.552 191.575 369.61 188.183 375.372L182 385.826L205.141 385.965C217.86 386.012 238.564 386.012 251.141 385.965L274 385.826L266.757 373.513C244.111 334.995 228.141 308 228.035 308C227.965 308 224.114 314.412 219.45 322.264Z" fill="#CD5C5C"/>
<path d="M188.56 524.862C193.311 517.036 201.035 504.378 205.75 496.645C210.464 488.912 217.172 477.958 220.654 472.25L226.999 461.894L203.863 461.393C191.147 461.147 170.446 460.823 157.869 460.673L135.011 460.455L142.06 472.879C164.101 511.747 179.646 538.988 179.752 538.99C179.823 538.991 183.774 532.64 188.56 524.862Z" fill="#CD5C5C"/>
<path d="M172.443 397.848C167.691 405.674 159.967 418.332 155.253 426.065C150.538 433.798 143.83 444.752 140.348 450.46L134.003 460.816L157.139 461.318C169.856 461.563 190.557 461.887 203.133 462.037L225.991 462.256L218.942 449.831C196.901 410.964 181.356 383.722 181.25 383.72C181.179 383.719 177.229 390.07 172.443 397.848Z" fill="#FF7F50"/>
<path d="M373.55 676.736C378.178 668.837 385.704 656.06 390.296 648.254C394.889 640.448 401.425 629.39 404.817 623.628L411 613.174L387.859 613.035C375.14 612.988 354.436 612.988 341.859 613.035L319 613.174L326.243 625.487C348.889 664.005 364.859 691 364.965 691C365.035 691 368.886 684.588 373.55 676.736Z" fill="#CD5C5C"/>
<path d="M126.443 474.848C121.691 482.674 113.967 495.332 109.253 503.065C104.538 510.798 97.8298 521.752 94.3483 527.46L88.0027 537.816L111.139 538.318C123.856 538.563 144.557 538.887 157.133 539.037L179.991 539.256L172.942 526.831C150.901 487.964 135.356 460.722 135.25 460.72C135.179 460.719 131.229 467.07 126.443 474.848Z" fill="#FF7F50"/>
<path d="M234.766 448.582C239.518 440.756 247.242 428.098 251.957 420.365C256.671 412.632 263.379 401.678 266.861 395.97L273.206 385.614L250.07 385.112C237.353 384.867 216.652 384.543 204.076 384.393L181.218 384.174L188.267 396.599C210.308 435.466 225.853 462.708 225.959 462.71C226.03 462.711 229.981 456.36 234.766 448.582Z" fill="#F08080"/>
<path d="M317.418 612.366C317.66 611.992 318.87 609.947 320.125 607.816C321.379 605.684 326.484 597.073 331.457 588.663C336.43 580.281 345.342 565.247 351.24 555.253L362 537.108L339.401 537.022C326.968 536.993 306.702 536.993 294.401 537.022L272 537.108L277.523 546.468C280.582 551.624 286.281 561.272 290.22 567.926C294.159 574.579 300.826 585.869 305.051 592.983C309.254 600.126 313.655 607.528 314.8 609.486C315.944 611.416 316.89 613 316.934 613C316.956 613 317.176 612.712 317.418 612.366Z" fill="#F08080"/>
<path d="M453.582 534.634C453.34 535.008 452.13 537.053 450.875 539.184C449.621 541.316 444.516 549.927 439.543 558.337C434.57 566.719 425.658 581.753 419.76 591.747L409 609.892L431.599 609.978C444.032 610.007 464.298 610.007 476.599 609.978L499 609.892L493.477 600.532C490.418 595.376 484.719 585.728 480.78 579.074C476.841 572.421 470.174 561.131 465.949 554.017C461.746 546.874 457.345 539.472 456.2 537.514C455.056 535.584 454.11 534 454.066 534C454.044 534 453.824 534.288 453.582 534.634Z" fill="#CD5C5C"/>
<path d="M310.443 473.848C305.691 481.674 297.967 494.332 293.253 502.065C288.538 509.798 281.83 520.752 278.348 526.46L272.003 536.816L295.139 537.318C307.856 537.563 328.557 537.887 341.133 538.037L363.991 538.256L356.942 525.831C334.901 486.964 319.356 459.722 319.25 459.72C319.179 459.719 315.229 466.07 310.443 473.848Z" fill="#CD5C5C"/>
<path d="M416.55 598.736C421.178 590.837 428.704 578.06 433.296 570.254C437.889 562.448 444.425 551.39 447.817 545.628L454 535.174L430.859 535.035C418.14 534.988 397.436 534.988 384.859 535.035L362 535.174L369.243 547.487C391.889 586.005 407.859 613 407.965 613C408.035 613 411.886 606.588 416.55 598.736Z" fill="#FF7F50"/>
<path d="M89.5819 538.634C89.3399 539.008 88.1296 541.053 86.8753 543.184C85.621 545.316 80.5159 553.927 75.5428 562.337C70.5697 570.719 61.6577 585.753 55.7604 595.747L45 613.892L67.599 613.978C80.0318 614.007 100.298 614.007 112.599 613.978L135 613.892L129.477 604.532C126.418 599.376 120.719 589.728 116.78 583.074C112.841 576.421 106.174 565.131 101.949 558.017C97.7457 550.874 93.3447 543.472 92.2005 541.514C91.0562 539.584 90.11 538 90.066 538C90.044 538 89.824 538.288 89.5819 538.634Z" fill="#F08080"/>
<path d="M44.5819 614.634C44.3399 615.008 43.1296 617.053 41.8753 619.184C40.621 621.316 35.5159 629.927 30.5428 638.337C25.5697 646.719 16.6577 661.753 10.7604 671.747L0 689.892L22.599 689.978C35.0318 690.007 55.2983 690.007 67.599 689.978L90 689.892L84.4768 680.532C81.4181 675.376 75.7188 665.728 71.7799 659.074C67.8411 652.421 61.1736 641.131 56.9487 634.017C52.7457 626.874 48.3447 619.472 47.2005 617.514C46.0562 615.584 45.11 614 45.066 614C45.044 614 44.824 614.288 44.5819 614.634Z" fill="#CD5C5C"/>
<path d="M135.418 613.366C135.66 612.992 136.87 610.947 138.125 608.816C139.379 606.684 144.484 598.073 149.457 589.663C154.43 581.281 163.342 566.247 169.24 556.253L180 538.108L157.401 538.022C144.968 537.993 124.702 537.993 112.401 538.022L90 538.108L95.5232 547.468C98.5819 552.624 104.281 562.272 108.22 568.926C112.159 575.579 118.826 586.869 123.051 593.983C127.254 601.126 131.655 608.528 132.8 610.486C133.944 612.416 134.89 614 134.934 614C134.956 614 135.176 613.712 135.418 613.366Z" fill="#CD5C5C"/>
<path d="M281.55 675.736C286.178 667.837 293.704 655.06 298.296 647.254C302.889 639.448 309.425 628.39 312.817 622.628L319 612.174L295.859 612.035C283.14 611.988 262.436 611.988 249.859 612.035L227 612.174L234.243 624.487C256.889 663.005 272.859 690 272.965 690C273.035 690 276.886 683.588 281.55 675.736Z" fill="#FF7F50"/>
<path d="M188.56 677.862C193.311 670.036 201.035 657.378 205.75 649.645C210.464 641.912 217.172 630.958 220.654 625.25L226.999 614.894L203.863 614.393C191.147 614.147 170.446 613.823 157.869 613.673L135.011 613.455L142.06 625.879C164.101 664.747 179.646 691.988 179.752 691.99C179.823 691.991 183.774 685.64 188.56 677.862Z" fill="#CD5C5C"/>
<path d="M172.443 550.848C167.691 558.674 159.967 571.332 155.253 579.065C150.538 586.798 143.83 597.752 140.348 603.46L134.003 613.816L157.139 614.318C169.856 614.563 190.557 614.887 203.133 615.037L225.991 615.256L218.942 602.831C196.901 563.964 181.356 536.722 181.25 536.72C181.179 536.719 177.229 543.07 172.443 550.848Z" fill="#FF7F50"/>
<path d="M264.443 551.848C259.691 559.674 251.967 572.332 247.253 580.065C242.538 587.798 235.83 598.752 232.348 604.46L226.003 614.816L249.139 615.318C261.856 615.563 282.557 615.887 295.133 616.037L317.991 616.256L310.942 603.831C288.901 564.964 273.356 537.722 273.25 537.72C273.179 537.719 269.229 544.07 264.443 551.848Z" fill="#CD5C5C"/>
<path d="M126.443 627.848C121.691 635.674 113.967 648.332 109.253 656.065C104.538 663.798 97.8298 674.752 94.3483 680.46L88.0027 690.816L111.139 691.318C123.856 691.563 144.557 691.887 157.133 692.037L179.991 692.256L172.942 679.831C150.901 640.964 135.356 613.722 135.25 613.72C135.179 613.719 131.229 620.07 126.443 627.848Z" fill="#FF7F50"/>
<path d="M234.766 601.582C239.518 593.756 247.242 581.098 251.957 573.365C256.671 565.632 263.379 554.678 266.861 548.97L273.206 538.614L250.07 538.112C237.353 537.867 216.652 537.543 204.076 537.393L181.218 537.174L188.267 549.599C210.308 588.466 225.853 615.708 225.959 615.71C226.03 615.711 229.981 609.36 234.766 601.582Z" fill="#F08080"/>
<path d="M37.4501 168.264C32.8218 176.163 25.2965 188.94 20.7035 196.746C16.1106 204.552 9.5745 215.61 6.1828 221.372L0 231.826L23.1413 231.965C35.8602 232.012 56.5638 232.012 69.1413 231.965L92 231.826L84.7573 219.513C62.1106 180.995 46.1413 154 46.0353 154C45.9647 154 42.1137 160.412 37.4501 168.264Z" fill="#CD5C5C"/>
<path d="M54.5499 140.736C59.1782 132.837 66.7035 120.06 71.2965 112.254C75.8894 104.448 82.4255 93.3899 85.8172 87.6284L92 77.1742L68.8587 77.0348C56.1398 76.9884 35.4362 76.9884 22.8587 77.0348L0 77.1742L7.2427 89.487C29.8894 128.005 45.8587 155 45.9647 155C46.0353 155 49.8863 148.588 54.5499 140.736Z" fill="#CD5C5C"/>
</svg>
