<svg width="56" height="82" viewBox="0 0 56 82" fill="none" xmlns="http://www.w3.org/2000/svg">
<path d="M39.9286 68V77H11V72.5V68H39.9286Z" fill="url(#paint0_linear)"/>
<ellipse cx="13.2" cy="71" rx="6" ry="2.5" transform="rotate(90 13.2 71)" fill="#19181A"/>
<rect x="13" y="70" width="12" height="3" transform="rotate(90 13 70)" fill="#19181A"/>
<path d="M1 17H14V65H7.5H1V17Z" fill="url(#paint1_linear)"/>
<ellipse cx="7.5" cy="64" rx="6.5" ry="3" fill="#19181A"/>
<rect x="1" y="63.5778" width="13" height="1.42222" fill="#19181A"/>
<path d="M2.14686 14.25L7.5 1.88746L12.8531 14.25H2.14686Z" fill="#19181A" stroke="url(#paint2_linear)" stroke-width="1.5"/>
<path d="M7.5 0L10.0981 7.5H4.90192L7.5 0Z" fill="url(#paint3_linear)"/>
<circle cx="7.5" cy="69.5" r="5.5" fill="url(#paint4_linear)"/>
<path d="M56 69.2428C56 72.1857 55.1631 74.2357 53.4892 75.3928C51.9452 76.4643 49.824 77 47.1255 77H41V76.5928H42.4286V62.4071H41V62H47.6883C50.4589 62 52.5368 62.5643 53.9221 63.6928C55.3074 64.8071 56 66.6571 56 69.2428ZM46.6494 74.8071H48.1346C49.592 74.8071 50.5083 73.5643 51.1288 72.55C51.5411 71.8759 51.5411 70.5428 51.5411 69.9286V68.6857C51.5411 65.4714 50.4661 65.4071 49.5642 64.5143C48.9726 64.2 48.2511 64.1928 47.1688 64.1928H46.6494V74.8071Z" fill="url(#paint5_linear)"/>
<line x1="42.7" y1="62.999" x2="17.2" y2="62.999" stroke="url(#paint6_linear)" stroke-width="2"/>
<line x1="41" y1="76.8" x2="39" y2="76.8" stroke="url(#paint7_linear)" stroke-width="0.4"/>
<ellipse cx="16.6" cy="62.75" rx="1" ry="1.25" fill="#FF7F50"/>
<line x1="16.7288" y1="63.3259" x2="22.7581" y2="66.2666" stroke="url(#paint8_linear)" stroke-width="1.5"/>
<line x1="16.6712" y1="62.2666" x2="22.7005" y2="59.3259" stroke="url(#paint9_linear)" stroke-width="1.5"/>
<defs>
<linearGradient id="paint0_linear" x1="42.5" y1="72" x2="11" y2="72.5" gradientUnits="userSpaceOnUse">
<stop stop-color="#CD5C5C"/>
<stop offset="0.646824" stop-color="#FF7F50"/>
<stop offset="0.979167" stop-color="#F08080"/>
</linearGradient>
<linearGradient id="paint1_linear" x1="8" y1="13" x2="7.5" y2="65" gradientUnits="userSpaceOnUse">
<stop stop-color="#CD5C5C"/>
<stop offset="0.763979" stop-color="#FF7F50"/>
<stop offset="0.989583" stop-color="#F08080"/>
</linearGradient>
<linearGradient id="paint2_linear" x1="7.5" y1="0" x2="7.5" y2="20" gradientUnits="userSpaceOnUse">
<stop stop-color="#CD5C5C"/>
<stop offset="0.291667" stop-color="#FF7F50"/>
<stop offset="0.822917" stop-color="#F08080"/>
</linearGradient>
<linearGradient id="paint3_linear" x1="7.5" y1="0" x2="7.5" y2="10" gradientUnits="userSpaceOnUse">
<stop stop-color="#CD5C5C"/>
<stop offset="1" stop-color="#FF7F50"/>
</linearGradient>
<linearGradient id="paint4_linear" x1="-0.5" y1="64.5" x2="7.5" y2="75" gradientUnits="userSpaceOnUse">
<stop stop-color="#CD5C5C"/>
<stop offset="0.670298" stop-color="#FF7F50"/>
<stop offset="1" stop-color="#F08080"/>
</linearGradient>
<linearGradient id="paint5_linear" x1="48.5" y1="62" x2="48.5" y2="77" gradientUnits="userSpaceOnUse">
<stop stop-color="#CD5C5C"/>
<stop offset="0.53125" stop-color="#FF7F50"/>
<stop offset="0.979167" stop-color="#F08080"/>
</linearGradient>
<linearGradient id="paint6_linear" x1="32.5" y1="61" x2="29.95" y2="60.999" gradientUnits="userSpaceOnUse">
<stop stop-color="#CD5C5C"/>
<stop offset="0.656404" stop-color="#FF7F50"/>
</linearGradient>
<linearGradient id="paint7_linear" x1="40" y1="76.6" x2="40" y2="75.6" gradientUnits="userSpaceOnUse">
<stop stop-color="#CD5C5C"/>
<stop offset="1" stop-color="#F08080" stop-opacity="0"/>
</linearGradient>
<linearGradient id="paint8_linear" x1="21.5" y1="66" x2="17.5" y2="64" gradientUnits="userSpaceOnUse">
<stop stop-color="#CD5C5C"/>
<stop offset="1" stop-color="#FF7F50"/>
</linearGradient>
<linearGradient id="paint9_linear" x1="22" y1="61.5" x2="18.5" y2="63" gradientUnits="userSpaceOnUse">
<stop stop-color="#CD5C5C"/>
<stop offset="1" stop-color="#FF7F50"/>
</linearGradient>
</defs>
</svg>
